M48
; DRILL file {KiCad 7.0.1} date Tue Jun 27 15:59:29 2023
; FORMAT={2:4/ absolute / inch / keep zeros}
; #@! TF.CreationDate,2023-06-27T15:59:29-05:00
; #@! TF.GenerationSoftware,Kicad,Pcbnew,7.0.1
; #@! TF.FileFunction,Plated,1,2,PTH
FMAT,2
INCH
; #@! TA.AperFunction,Plated,PTH,ComponentDrill
T1C0.0315
; #@! TA.AperFunction,Plated,PTH,ComponentDrill
T2C0.0394
; #@! TA.AperFunction,Plated,PTH,ComponentDrill
T3C0.0402
; #@! TA.AperFunction,Plated,PTH,ComponentDrill
T4C0.0512
%
G90
G05
T1
X046400Y-023400
X050400Y-023400
X053200Y-018800
X053200Y-022800
T2
X027000Y-020000
X027000Y-021000
X027000Y-022000
X027000Y-023000
X027000Y-024000
X027000Y-025000
X027000Y-027600
X027000Y-030000
X027000Y-031000
X027000Y-032000
X027000Y-033000
X027000Y-034000
X027000Y-035000
X028510Y-030000
X028510Y-031000
X028510Y-032000
X028510Y-033000
X029600Y-020200
X029750Y-017000
X029794Y-018410
X030000Y-032000
X030000Y-033000
X030750Y-017000
X030794Y-018410
X031500Y-032000
X031500Y-033000
X031750Y-017000
X031794Y-018410
X032400Y-020800
X046000Y-017800
X046000Y-018800
X046000Y-019800
X046492Y-027210
X046508Y-024990
X046600Y-030000
X046600Y-031600
X047492Y-027210
X047508Y-024990
X047600Y-030000
X047600Y-031600
X047800Y-017800
X047800Y-018800
X047800Y-019800
X048600Y-031600
X049622Y-017800
X049622Y-018800
X049622Y-019800
X050800Y-031800
X050800Y-032800
X051433Y-017800
X051433Y-018800
X051433Y-019800
X052800Y-028400
X055500Y-021400
X055500Y-037400
X059610Y-018108
X059610Y-019108
X062000Y-019200
X062500Y-021400
X062500Y-037400
T3
X034185Y-020650
X034185Y-021650
X034185Y-022650
X034185Y-023650
X034185Y-024650
X034185Y-025650
X034185Y-026650
X034185Y-027650
X034185Y-028650
X034185Y-029650
X034185Y-030650
X034185Y-031650
X034185Y-032650
X034185Y-033650
X034185Y-034650
X044185Y-020650
X044185Y-021650
X044185Y-022650
X044185Y-023650
X044185Y-024650
X044185Y-025650
X044185Y-026650
X044185Y-027650
X044185Y-028650
X044185Y-029650
X044185Y-030650
X044185Y-031650
X044185Y-032650
X044185Y-033650
X044185Y-034650
T4
X046800Y-036200
X048800Y-036200
T0
M30
