%TF.GenerationSoftware,KiCad,Pcbnew,7.0.1*%
%TF.CreationDate,2023-06-29T12:07:24-05:00*%
%TF.ProjectId,ChocoBox,43686f63-6f42-46f7-982e-6b696361645f,rev?*%
%TF.SameCoordinates,Original*%
%TF.FileFunction,Soldermask,Bot*%
%TF.FilePolarity,Negative*%
%FSLAX46Y46*%
G04 Gerber Fmt 4.6, Leading zero omitted, Abs format (unit mm)*
G04 Created by KiCad (PCBNEW 7.0.1) date 2023-06-29 12:07:24*
%MOMM*%
%LPD*%
G01*
G04 APERTURE LIST*
%ADD10R,1.700000X1.700000*%
%ADD11C,3.000000*%
%ADD12R,2.000000X2.000000*%
%ADD13C,2.000000*%
%ADD14O,1.700000X1.700000*%
%ADD15C,1.600000*%
%ADD16O,1.600000X1.600000*%
%ADD17R,2.600000X2.600000*%
%ADD18C,2.600000*%
%ADD19R,2.540000X2.540000*%
%ADD20C,2.540000*%
%TA.AperFunction,Profile*%
%ADD21C,0.500000*%
%TD*%
G04 APERTURE END LIST*
D10*
%TO.C,J16*%
X157480000Y-48768000D03*
%TD*%
D11*
%TO.C,U1*%
X87250000Y-44490000D03*
X87250000Y-91440000D03*
X111760000Y-44490000D03*
X111760000Y-91440000D03*
D12*
X86830000Y-52450000D03*
D13*
X86830000Y-54990000D03*
X86830000Y-57530000D03*
X86830000Y-60070000D03*
X86830000Y-62610000D03*
X86830000Y-65150000D03*
X86830000Y-67690000D03*
X86830000Y-70230000D03*
X86830000Y-72770000D03*
X86830000Y-75310000D03*
X86830000Y-77850000D03*
X86830000Y-80390000D03*
X86830000Y-82930000D03*
X86830000Y-85470000D03*
X86830000Y-88010000D03*
X112230000Y-88010000D03*
X112230000Y-85470000D03*
X112230000Y-82930000D03*
X112230000Y-80390000D03*
X112230000Y-77850000D03*
X112230000Y-75310000D03*
X112230000Y-72770000D03*
X112230000Y-70230000D03*
X112230000Y-67690000D03*
X112230000Y-65150000D03*
X112230000Y-62610000D03*
X112230000Y-60070000D03*
X112230000Y-57530000D03*
X112230000Y-54990000D03*
X112230000Y-52450000D03*
%TD*%
D10*
%TO.C,J11*%
X75184000Y-51308000D03*
%TD*%
%TO.C,J6*%
X120630000Y-69113000D03*
D14*
X118090000Y-69113000D03*
%TD*%
D10*
%TO.C,J18*%
X82296000Y-52832000D03*
%TD*%
D15*
%TO.C,R1*%
X128016000Y-59436000D03*
D16*
X117856000Y-59436000D03*
%TD*%
D10*
%TO.C,J5*%
X68580000Y-63500000D03*
D14*
X68580000Y-60960000D03*
X68580000Y-58420000D03*
X68580000Y-55880000D03*
X68580000Y-53340000D03*
X68580000Y-50800000D03*
%TD*%
D10*
%TO.C,J12*%
X76200000Y-81280000D03*
D14*
X76200000Y-83820000D03*
%TD*%
D10*
%TO.C,J14*%
X151409000Y-45994000D03*
D14*
X151409000Y-48534000D03*
%TD*%
D10*
%TO.C,J3*%
X68580000Y-76200000D03*
D14*
X68580000Y-78740000D03*
X68580000Y-81280000D03*
X68580000Y-83820000D03*
X68580000Y-86360000D03*
X68580000Y-88900000D03*
%TD*%
D10*
%TO.C,J2*%
X80645000Y-43180000D03*
D14*
X78105000Y-43180000D03*
X75565000Y-43180000D03*
%TD*%
D15*
%TO.C,R3*%
X135128000Y-47752000D03*
D16*
X135128000Y-57912000D03*
%TD*%
D17*
%TO.C,J8*%
X118872000Y-91948000D03*
D18*
X123952000Y-91948000D03*
%TD*%
D10*
%TO.C,J20*%
X121412000Y-45212000D03*
D14*
X121412000Y-47752000D03*
X121412000Y-50292000D03*
%TD*%
D19*
%TO.C,U2*%
X140970000Y-94996000D03*
D20*
X158750000Y-94996000D03*
X158750000Y-54356000D03*
X140970000Y-54356000D03*
%TD*%
D10*
%TO.C,J15*%
X68580000Y-70104000D03*
%TD*%
%TO.C,J21*%
X126040000Y-45212000D03*
D14*
X126040000Y-47752000D03*
X126040000Y-50292000D03*
%TD*%
D10*
%TO.C,J4*%
X72415000Y-76200000D03*
D14*
X72415000Y-78740000D03*
X72415000Y-81280000D03*
X72415000Y-83820000D03*
%TD*%
D10*
%TO.C,SW1*%
X118130000Y-63475000D03*
D14*
X120670000Y-63475000D03*
%TD*%
D10*
%TO.C,J22*%
X130640000Y-45212000D03*
D14*
X130640000Y-47752000D03*
X130640000Y-50292000D03*
%TD*%
D10*
%TO.C,J17*%
X134112000Y-72136000D03*
%TD*%
%TO.C,J7*%
X123444000Y-80264000D03*
D14*
X120904000Y-80264000D03*
X118364000Y-80264000D03*
%TD*%
D10*
%TO.C,J13*%
X80010000Y-81280000D03*
D14*
X80010000Y-83820000D03*
%TD*%
D10*
%TO.C,J10*%
X129032000Y-80772000D03*
D14*
X129032000Y-83312000D03*
%TD*%
D10*
%TO.C,J9*%
X120904000Y-76200000D03*
D14*
X118364000Y-76200000D03*
%TD*%
D10*
%TO.C,J19*%
X116840000Y-45212000D03*
D14*
X116840000Y-47752000D03*
X116840000Y-50292000D03*
%TD*%
D10*
%TO.C,J1*%
X80757000Y-46761000D03*
D14*
X78217000Y-46761000D03*
X75677000Y-46761000D03*
%TD*%
D21*
X61468000Y-37084000D02*
X163068000Y-37084000D01*
X163068000Y-98552000D01*
X61468000Y-98552000D01*
X61468000Y-37084000D01*
M02*
