%TF.GenerationSoftware,KiCad,Pcbnew,7.0.1*%
%TF.CreationDate,2023-06-29T12:07:29-05:00*%
%TF.ProjectId,ChocoBox,43686f63-6f42-46f7-982e-6b696361645f,rev?*%
%TF.SameCoordinates,Original*%
%TF.FileFunction,Drillmap*%
%TF.FilePolarity,Positive*%
%FSLAX45Y45*%
G04 Gerber Fmt 4.5, Leading zero omitted, Abs format (unit mm)*
G04 Created by KiCad (PCBNEW 7.0.1) date 2023-06-29 12:07:29*
%MOMM*%
%LPD*%
G01*
G04 APERTURE LIST*
%ADD10C,0.500000*%
%ADD11C,0.200000*%
%ADD12C,0.080000*%
%ADD13C,0.100000*%
%ADD14C,0.102000*%
%ADD15C,0.130000*%
G04 APERTURE END LIST*
D10*
X6146800Y-3708400D02*
X16306800Y-3708400D01*
X16306800Y-9855200D01*
X6146800Y-9855200D01*
X6146800Y-3708400D01*
D11*
D12*
X11745600Y-5903600D02*
X11825600Y-5983600D01*
X11825600Y-5903600D02*
X11745600Y-5983600D01*
X12761600Y-5903600D02*
X12841600Y-5983600D01*
X12841600Y-5903600D02*
X12761600Y-5983600D01*
X13472800Y-4735200D02*
X13552800Y-4815200D01*
X13552800Y-4735200D02*
X13472800Y-4815200D01*
X13472800Y-5751200D02*
X13552800Y-5831200D01*
X13552800Y-5751200D02*
X13472800Y-5831200D01*
D13*
X6908000Y-5080000D02*
G75*
G03*
X6908000Y-5080000I-50000J0D01*
G01*
X6908000Y-5334000D02*
G75*
G03*
X6908000Y-5334000I-50000J0D01*
G01*
X6908000Y-5588000D02*
G75*
G03*
X6908000Y-5588000I-50000J0D01*
G01*
X6908000Y-5842000D02*
G75*
G03*
X6908000Y-5842000I-50000J0D01*
G01*
X6908000Y-6096000D02*
G75*
G03*
X6908000Y-6096000I-50000J0D01*
G01*
X6908000Y-6350000D02*
G75*
G03*
X6908000Y-6350000I-50000J0D01*
G01*
X6908000Y-7010400D02*
G75*
G03*
X6908000Y-7010400I-50000J0D01*
G01*
X6908000Y-7620000D02*
G75*
G03*
X6908000Y-7620000I-50000J0D01*
G01*
X6908000Y-7874000D02*
G75*
G03*
X6908000Y-7874000I-50000J0D01*
G01*
X6908000Y-8128000D02*
G75*
G03*
X6908000Y-8128000I-50000J0D01*
G01*
X6908000Y-8382000D02*
G75*
G03*
X6908000Y-8382000I-50000J0D01*
G01*
X6908000Y-8636000D02*
G75*
G03*
X6908000Y-8636000I-50000J0D01*
G01*
X6908000Y-8890000D02*
G75*
G03*
X6908000Y-8890000I-50000J0D01*
G01*
X7291500Y-7620000D02*
G75*
G03*
X7291500Y-7620000I-50000J0D01*
G01*
X7291500Y-7874000D02*
G75*
G03*
X7291500Y-7874000I-50000J0D01*
G01*
X7291500Y-8128000D02*
G75*
G03*
X7291500Y-8128000I-50000J0D01*
G01*
X7291500Y-8382000D02*
G75*
G03*
X7291500Y-8382000I-50000J0D01*
G01*
X7568400Y-5130800D02*
G75*
G03*
X7568400Y-5130800I-50000J0D01*
G01*
X7606500Y-4318000D02*
G75*
G03*
X7606500Y-4318000I-50000J0D01*
G01*
X7617700Y-4676100D02*
G75*
G03*
X7617700Y-4676100I-50000J0D01*
G01*
X7670000Y-8128000D02*
G75*
G03*
X7670000Y-8128000I-50000J0D01*
G01*
X7670000Y-8382000D02*
G75*
G03*
X7670000Y-8382000I-50000J0D01*
G01*
X7860500Y-4318000D02*
G75*
G03*
X7860500Y-4318000I-50000J0D01*
G01*
X7871700Y-4676100D02*
G75*
G03*
X7871700Y-4676100I-50000J0D01*
G01*
X8051000Y-8128000D02*
G75*
G03*
X8051000Y-8128000I-50000J0D01*
G01*
X8051000Y-8382000D02*
G75*
G03*
X8051000Y-8382000I-50000J0D01*
G01*
X8114500Y-4318000D02*
G75*
G03*
X8114500Y-4318000I-50000J0D01*
G01*
X8125700Y-4676100D02*
G75*
G03*
X8125700Y-4676100I-50000J0D01*
G01*
X8279600Y-5283200D02*
G75*
G03*
X8279600Y-5283200I-50000J0D01*
G01*
X11734000Y-4521200D02*
G75*
G03*
X11734000Y-4521200I-50000J0D01*
G01*
X11734000Y-4775200D02*
G75*
G03*
X11734000Y-4775200I-50000J0D01*
G01*
X11734000Y-5029200D02*
G75*
G03*
X11734000Y-5029200I-50000J0D01*
G01*
X11859000Y-6911300D02*
G75*
G03*
X11859000Y-6911300I-50000J0D01*
G01*
X11863000Y-6347500D02*
G75*
G03*
X11863000Y-6347500I-50000J0D01*
G01*
X11886400Y-7620000D02*
G75*
G03*
X11886400Y-7620000I-50000J0D01*
G01*
X11886400Y-8026400D02*
G75*
G03*
X11886400Y-8026400I-50000J0D01*
G01*
X12113000Y-6911300D02*
G75*
G03*
X12113000Y-6911300I-50000J0D01*
G01*
X12117000Y-6347500D02*
G75*
G03*
X12117000Y-6347500I-50000J0D01*
G01*
X12140400Y-7620000D02*
G75*
G03*
X12140400Y-7620000I-50000J0D01*
G01*
X12140400Y-8026400D02*
G75*
G03*
X12140400Y-8026400I-50000J0D01*
G01*
X12191200Y-4521200D02*
G75*
G03*
X12191200Y-4521200I-50000J0D01*
G01*
X12191200Y-4775200D02*
G75*
G03*
X12191200Y-4775200I-50000J0D01*
G01*
X12191200Y-5029200D02*
G75*
G03*
X12191200Y-5029200I-50000J0D01*
G01*
X12394400Y-8026400D02*
G75*
G03*
X12394400Y-8026400I-50000J0D01*
G01*
X12654000Y-4521200D02*
G75*
G03*
X12654000Y-4521200I-50000J0D01*
G01*
X12654000Y-4775200D02*
G75*
G03*
X12654000Y-4775200I-50000J0D01*
G01*
X12654000Y-5029200D02*
G75*
G03*
X12654000Y-5029200I-50000J0D01*
G01*
X12953200Y-8077200D02*
G75*
G03*
X12953200Y-8077200I-50000J0D01*
G01*
X12953200Y-8331200D02*
G75*
G03*
X12953200Y-8331200I-50000J0D01*
G01*
X13114000Y-4521200D02*
G75*
G03*
X13114000Y-4521200I-50000J0D01*
G01*
X13114000Y-4775200D02*
G75*
G03*
X13114000Y-4775200I-50000J0D01*
G01*
X13114000Y-5029200D02*
G75*
G03*
X13114000Y-5029200I-50000J0D01*
G01*
X13461200Y-7213600D02*
G75*
G03*
X13461200Y-7213600I-50000J0D01*
G01*
X14147000Y-5435600D02*
G75*
G03*
X14147000Y-5435600I-50000J0D01*
G01*
X14147000Y-9499600D02*
G75*
G03*
X14147000Y-9499600I-50000J0D01*
G01*
X15190900Y-4599400D02*
G75*
G03*
X15190900Y-4599400I-50000J0D01*
G01*
X15190900Y-4853400D02*
G75*
G03*
X15190900Y-4853400I-50000J0D01*
G01*
X15798000Y-4876800D02*
G75*
G03*
X15798000Y-4876800I-50000J0D01*
G01*
X15925000Y-5435600D02*
G75*
G03*
X15925000Y-5435600I-50000J0D01*
G01*
X15925000Y-9499600D02*
G75*
G03*
X15925000Y-9499600I-50000J0D01*
G01*
D14*
X8683000Y-5194000D02*
X8683000Y-5296000D01*
X8632000Y-5245000D02*
X8734000Y-5245000D01*
X8683000Y-5448000D02*
X8683000Y-5550000D01*
X8632000Y-5499000D02*
X8734000Y-5499000D01*
X8683000Y-5702000D02*
X8683000Y-5804000D01*
X8632000Y-5753000D02*
X8734000Y-5753000D01*
X8683000Y-5956000D02*
X8683000Y-6058000D01*
X8632000Y-6007000D02*
X8734000Y-6007000D01*
X8683000Y-6210000D02*
X8683000Y-6312000D01*
X8632000Y-6261000D02*
X8734000Y-6261000D01*
X8683000Y-6464000D02*
X8683000Y-6566000D01*
X8632000Y-6515000D02*
X8734000Y-6515000D01*
X8683000Y-6718000D02*
X8683000Y-6820000D01*
X8632000Y-6769000D02*
X8734000Y-6769000D01*
X8683000Y-6972000D02*
X8683000Y-7074000D01*
X8632000Y-7023000D02*
X8734000Y-7023000D01*
X8683000Y-7226000D02*
X8683000Y-7328000D01*
X8632000Y-7277000D02*
X8734000Y-7277000D01*
X8683000Y-7480000D02*
X8683000Y-7582000D01*
X8632000Y-7531000D02*
X8734000Y-7531000D01*
X8683000Y-7734000D02*
X8683000Y-7836000D01*
X8632000Y-7785000D02*
X8734000Y-7785000D01*
X8683000Y-7988000D02*
X8683000Y-8090000D01*
X8632000Y-8039000D02*
X8734000Y-8039000D01*
X8683000Y-8242000D02*
X8683000Y-8344000D01*
X8632000Y-8293000D02*
X8734000Y-8293000D01*
X8683000Y-8496000D02*
X8683000Y-8598000D01*
X8632000Y-8547000D02*
X8734000Y-8547000D01*
X8683000Y-8750000D02*
X8683000Y-8852000D01*
X8632000Y-8801000D02*
X8734000Y-8801000D01*
X11223000Y-5194000D02*
X11223000Y-5296000D01*
X11172000Y-5245000D02*
X11274000Y-5245000D01*
X11223000Y-5448000D02*
X11223000Y-5550000D01*
X11172000Y-5499000D02*
X11274000Y-5499000D01*
X11223000Y-5702000D02*
X11223000Y-5804000D01*
X11172000Y-5753000D02*
X11274000Y-5753000D01*
X11223000Y-5956000D02*
X11223000Y-6058000D01*
X11172000Y-6007000D02*
X11274000Y-6007000D01*
X11223000Y-6210000D02*
X11223000Y-6312000D01*
X11172000Y-6261000D02*
X11274000Y-6261000D01*
X11223000Y-6464000D02*
X11223000Y-6566000D01*
X11172000Y-6515000D02*
X11274000Y-6515000D01*
X11223000Y-6718000D02*
X11223000Y-6820000D01*
X11172000Y-6769000D02*
X11274000Y-6769000D01*
X11223000Y-6972000D02*
X11223000Y-7074000D01*
X11172000Y-7023000D02*
X11274000Y-7023000D01*
X11223000Y-7226000D02*
X11223000Y-7328000D01*
X11172000Y-7277000D02*
X11274000Y-7277000D01*
X11223000Y-7480000D02*
X11223000Y-7582000D01*
X11172000Y-7531000D02*
X11274000Y-7531000D01*
X11223000Y-7734000D02*
X11223000Y-7836000D01*
X11172000Y-7785000D02*
X11274000Y-7785000D01*
X11223000Y-7988000D02*
X11223000Y-8090000D01*
X11172000Y-8039000D02*
X11274000Y-8039000D01*
X11223000Y-8242000D02*
X11223000Y-8344000D01*
X11172000Y-8293000D02*
X11274000Y-8293000D01*
X11223000Y-8496000D02*
X11223000Y-8598000D01*
X11172000Y-8547000D02*
X11274000Y-8547000D01*
X11223000Y-8750000D02*
X11223000Y-8852000D01*
X11172000Y-8801000D02*
X11274000Y-8801000D01*
D15*
X11933162Y-9240762D02*
X11933162Y-9148838D01*
X11841238Y-9148838D01*
X11841238Y-9240762D01*
X11933162Y-9240762D01*
X12441162Y-9240762D02*
X12441162Y-9148838D01*
X12349238Y-9148838D01*
X12349238Y-9240762D01*
X12441162Y-9240762D01*
D11*
X6369419Y-10192724D02*
X6369419Y-9992724D01*
X6369419Y-9992724D02*
X6417038Y-9992724D01*
X6417038Y-9992724D02*
X6445609Y-10002248D01*
X6445609Y-10002248D02*
X6464657Y-10021295D01*
X6464657Y-10021295D02*
X6474181Y-10040343D01*
X6474181Y-10040343D02*
X6483705Y-10078438D01*
X6483705Y-10078438D02*
X6483705Y-10107010D01*
X6483705Y-10107010D02*
X6474181Y-10145105D01*
X6474181Y-10145105D02*
X6464657Y-10164152D01*
X6464657Y-10164152D02*
X6445609Y-10183200D01*
X6445609Y-10183200D02*
X6417038Y-10192724D01*
X6417038Y-10192724D02*
X6369419Y-10192724D01*
X6569419Y-10192724D02*
X6569419Y-10059390D01*
X6569419Y-10097486D02*
X6578943Y-10078438D01*
X6578943Y-10078438D02*
X6588467Y-10068914D01*
X6588467Y-10068914D02*
X6607514Y-10059390D01*
X6607514Y-10059390D02*
X6626562Y-10059390D01*
X6693228Y-10192724D02*
X6693228Y-10059390D01*
X6693228Y-9992724D02*
X6683705Y-10002248D01*
X6683705Y-10002248D02*
X6693228Y-10011771D01*
X6693228Y-10011771D02*
X6702752Y-10002248D01*
X6702752Y-10002248D02*
X6693228Y-9992724D01*
X6693228Y-9992724D02*
X6693228Y-10011771D01*
X6817038Y-10192724D02*
X6797990Y-10183200D01*
X6797990Y-10183200D02*
X6788467Y-10164152D01*
X6788467Y-10164152D02*
X6788467Y-9992724D01*
X6921800Y-10192724D02*
X6902752Y-10183200D01*
X6902752Y-10183200D02*
X6893228Y-10164152D01*
X6893228Y-10164152D02*
X6893228Y-9992724D01*
X7150371Y-10192724D02*
X7150371Y-9992724D01*
X7150371Y-9992724D02*
X7217038Y-10135581D01*
X7217038Y-10135581D02*
X7283705Y-9992724D01*
X7283705Y-9992724D02*
X7283705Y-10192724D01*
X7464657Y-10192724D02*
X7464657Y-10087962D01*
X7464657Y-10087962D02*
X7455133Y-10068914D01*
X7455133Y-10068914D02*
X7436086Y-10059390D01*
X7436086Y-10059390D02*
X7397990Y-10059390D01*
X7397990Y-10059390D02*
X7378943Y-10068914D01*
X7464657Y-10183200D02*
X7445609Y-10192724D01*
X7445609Y-10192724D02*
X7397990Y-10192724D01*
X7397990Y-10192724D02*
X7378943Y-10183200D01*
X7378943Y-10183200D02*
X7369419Y-10164152D01*
X7369419Y-10164152D02*
X7369419Y-10145105D01*
X7369419Y-10145105D02*
X7378943Y-10126057D01*
X7378943Y-10126057D02*
X7397990Y-10116533D01*
X7397990Y-10116533D02*
X7445609Y-10116533D01*
X7445609Y-10116533D02*
X7464657Y-10107010D01*
X7559895Y-10059390D02*
X7559895Y-10259390D01*
X7559895Y-10068914D02*
X7578943Y-10059390D01*
X7578943Y-10059390D02*
X7617038Y-10059390D01*
X7617038Y-10059390D02*
X7636086Y-10068914D01*
X7636086Y-10068914D02*
X7645609Y-10078438D01*
X7645609Y-10078438D02*
X7655133Y-10097486D01*
X7655133Y-10097486D02*
X7655133Y-10154629D01*
X7655133Y-10154629D02*
X7645609Y-10173676D01*
X7645609Y-10173676D02*
X7636086Y-10183200D01*
X7636086Y-10183200D02*
X7617038Y-10192724D01*
X7617038Y-10192724D02*
X7578943Y-10192724D01*
X7578943Y-10192724D02*
X7559895Y-10183200D01*
X7740848Y-10173676D02*
X7750371Y-10183200D01*
X7750371Y-10183200D02*
X7740848Y-10192724D01*
X7740848Y-10192724D02*
X7731324Y-10183200D01*
X7731324Y-10183200D02*
X7740848Y-10173676D01*
X7740848Y-10173676D02*
X7740848Y-10192724D01*
X7740848Y-10068914D02*
X7750371Y-10078438D01*
X7750371Y-10078438D02*
X7740848Y-10087962D01*
X7740848Y-10087962D02*
X7731324Y-10078438D01*
X7731324Y-10078438D02*
X7740848Y-10068914D01*
X7740848Y-10068914D02*
X7740848Y-10087962D01*
D12*
X6041800Y-10480200D02*
X6121800Y-10560200D01*
X6121800Y-10480200D02*
X6041800Y-10560200D01*
D11*
X6407514Y-10412724D02*
X6426562Y-10412724D01*
X6426562Y-10412724D02*
X6445609Y-10422248D01*
X6445609Y-10422248D02*
X6455133Y-10431771D01*
X6455133Y-10431771D02*
X6464657Y-10450819D01*
X6464657Y-10450819D02*
X6474181Y-10488914D01*
X6474181Y-10488914D02*
X6474181Y-10536533D01*
X6474181Y-10536533D02*
X6464657Y-10574629D01*
X6464657Y-10574629D02*
X6455133Y-10593676D01*
X6455133Y-10593676D02*
X6445609Y-10603200D01*
X6445609Y-10603200D02*
X6426562Y-10612724D01*
X6426562Y-10612724D02*
X6407514Y-10612724D01*
X6407514Y-10612724D02*
X6388467Y-10603200D01*
X6388467Y-10603200D02*
X6378943Y-10593676D01*
X6378943Y-10593676D02*
X6369419Y-10574629D01*
X6369419Y-10574629D02*
X6359895Y-10536533D01*
X6359895Y-10536533D02*
X6359895Y-10488914D01*
X6359895Y-10488914D02*
X6369419Y-10450819D01*
X6369419Y-10450819D02*
X6378943Y-10431771D01*
X6378943Y-10431771D02*
X6388467Y-10422248D01*
X6388467Y-10422248D02*
X6407514Y-10412724D01*
X6559895Y-10593676D02*
X6569419Y-10603200D01*
X6569419Y-10603200D02*
X6559895Y-10612724D01*
X6559895Y-10612724D02*
X6550371Y-10603200D01*
X6550371Y-10603200D02*
X6559895Y-10593676D01*
X6559895Y-10593676D02*
X6559895Y-10612724D01*
X6683705Y-10498438D02*
X6664657Y-10488914D01*
X6664657Y-10488914D02*
X6655133Y-10479390D01*
X6655133Y-10479390D02*
X6645609Y-10460343D01*
X6645609Y-10460343D02*
X6645609Y-10450819D01*
X6645609Y-10450819D02*
X6655133Y-10431771D01*
X6655133Y-10431771D02*
X6664657Y-10422248D01*
X6664657Y-10422248D02*
X6683705Y-10412724D01*
X6683705Y-10412724D02*
X6721800Y-10412724D01*
X6721800Y-10412724D02*
X6740848Y-10422248D01*
X6740848Y-10422248D02*
X6750371Y-10431771D01*
X6750371Y-10431771D02*
X6759895Y-10450819D01*
X6759895Y-10450819D02*
X6759895Y-10460343D01*
X6759895Y-10460343D02*
X6750371Y-10479390D01*
X6750371Y-10479390D02*
X6740848Y-10488914D01*
X6740848Y-10488914D02*
X6721800Y-10498438D01*
X6721800Y-10498438D02*
X6683705Y-10498438D01*
X6683705Y-10498438D02*
X6664657Y-10507962D01*
X6664657Y-10507962D02*
X6655133Y-10517486D01*
X6655133Y-10517486D02*
X6645609Y-10536533D01*
X6645609Y-10536533D02*
X6645609Y-10574629D01*
X6645609Y-10574629D02*
X6655133Y-10593676D01*
X6655133Y-10593676D02*
X6664657Y-10603200D01*
X6664657Y-10603200D02*
X6683705Y-10612724D01*
X6683705Y-10612724D02*
X6721800Y-10612724D01*
X6721800Y-10612724D02*
X6740848Y-10603200D01*
X6740848Y-10603200D02*
X6750371Y-10593676D01*
X6750371Y-10593676D02*
X6759895Y-10574629D01*
X6759895Y-10574629D02*
X6759895Y-10536533D01*
X6759895Y-10536533D02*
X6750371Y-10517486D01*
X6750371Y-10517486D02*
X6740848Y-10507962D01*
X6740848Y-10507962D02*
X6721800Y-10498438D01*
X6883705Y-10412724D02*
X6902752Y-10412724D01*
X6902752Y-10412724D02*
X6921800Y-10422248D01*
X6921800Y-10422248D02*
X6931324Y-10431771D01*
X6931324Y-10431771D02*
X6940848Y-10450819D01*
X6940848Y-10450819D02*
X6950371Y-10488914D01*
X6950371Y-10488914D02*
X6950371Y-10536533D01*
X6950371Y-10536533D02*
X6940848Y-10574629D01*
X6940848Y-10574629D02*
X6931324Y-10593676D01*
X6931324Y-10593676D02*
X6921800Y-10603200D01*
X6921800Y-10603200D02*
X6902752Y-10612724D01*
X6902752Y-10612724D02*
X6883705Y-10612724D01*
X6883705Y-10612724D02*
X6864657Y-10603200D01*
X6864657Y-10603200D02*
X6855133Y-10593676D01*
X6855133Y-10593676D02*
X6845609Y-10574629D01*
X6845609Y-10574629D02*
X6836086Y-10536533D01*
X6836086Y-10536533D02*
X6836086Y-10488914D01*
X6836086Y-10488914D02*
X6845609Y-10450819D01*
X6845609Y-10450819D02*
X6855133Y-10431771D01*
X6855133Y-10431771D02*
X6864657Y-10422248D01*
X6864657Y-10422248D02*
X6883705Y-10412724D01*
X7074181Y-10412724D02*
X7093229Y-10412724D01*
X7093229Y-10412724D02*
X7112276Y-10422248D01*
X7112276Y-10422248D02*
X7121800Y-10431771D01*
X7121800Y-10431771D02*
X7131324Y-10450819D01*
X7131324Y-10450819D02*
X7140848Y-10488914D01*
X7140848Y-10488914D02*
X7140848Y-10536533D01*
X7140848Y-10536533D02*
X7131324Y-10574629D01*
X7131324Y-10574629D02*
X7121800Y-10593676D01*
X7121800Y-10593676D02*
X7112276Y-10603200D01*
X7112276Y-10603200D02*
X7093229Y-10612724D01*
X7093229Y-10612724D02*
X7074181Y-10612724D01*
X7074181Y-10612724D02*
X7055133Y-10603200D01*
X7055133Y-10603200D02*
X7045609Y-10593676D01*
X7045609Y-10593676D02*
X7036086Y-10574629D01*
X7036086Y-10574629D02*
X7026562Y-10536533D01*
X7026562Y-10536533D02*
X7026562Y-10488914D01*
X7026562Y-10488914D02*
X7036086Y-10450819D01*
X7036086Y-10450819D02*
X7045609Y-10431771D01*
X7045609Y-10431771D02*
X7055133Y-10422248D01*
X7055133Y-10422248D02*
X7074181Y-10412724D01*
X7226562Y-10612724D02*
X7226562Y-10479390D01*
X7226562Y-10498438D02*
X7236086Y-10488914D01*
X7236086Y-10488914D02*
X7255133Y-10479390D01*
X7255133Y-10479390D02*
X7283705Y-10479390D01*
X7283705Y-10479390D02*
X7302752Y-10488914D01*
X7302752Y-10488914D02*
X7312276Y-10507962D01*
X7312276Y-10507962D02*
X7312276Y-10612724D01*
X7312276Y-10507962D02*
X7321800Y-10488914D01*
X7321800Y-10488914D02*
X7340848Y-10479390D01*
X7340848Y-10479390D02*
X7369419Y-10479390D01*
X7369419Y-10479390D02*
X7388467Y-10488914D01*
X7388467Y-10488914D02*
X7397990Y-10507962D01*
X7397990Y-10507962D02*
X7397990Y-10612724D01*
X7493229Y-10612724D02*
X7493229Y-10479390D01*
X7493229Y-10498438D02*
X7502752Y-10488914D01*
X7502752Y-10488914D02*
X7521800Y-10479390D01*
X7521800Y-10479390D02*
X7550371Y-10479390D01*
X7550371Y-10479390D02*
X7569419Y-10488914D01*
X7569419Y-10488914D02*
X7578943Y-10507962D01*
X7578943Y-10507962D02*
X7578943Y-10612724D01*
X7578943Y-10507962D02*
X7588467Y-10488914D01*
X7588467Y-10488914D02*
X7607514Y-10479390D01*
X7607514Y-10479390D02*
X7636086Y-10479390D01*
X7636086Y-10479390D02*
X7655133Y-10488914D01*
X7655133Y-10488914D02*
X7664657Y-10507962D01*
X7664657Y-10507962D02*
X7664657Y-10612724D01*
X8055133Y-10403200D02*
X7883705Y-10660343D01*
X8312276Y-10412724D02*
X8331324Y-10412724D01*
X8331324Y-10412724D02*
X8350372Y-10422248D01*
X8350372Y-10422248D02*
X8359895Y-10431771D01*
X8359895Y-10431771D02*
X8369419Y-10450819D01*
X8369419Y-10450819D02*
X8378943Y-10488914D01*
X8378943Y-10488914D02*
X8378943Y-10536533D01*
X8378943Y-10536533D02*
X8369419Y-10574629D01*
X8369419Y-10574629D02*
X8359895Y-10593676D01*
X8359895Y-10593676D02*
X8350372Y-10603200D01*
X8350372Y-10603200D02*
X8331324Y-10612724D01*
X8331324Y-10612724D02*
X8312276Y-10612724D01*
X8312276Y-10612724D02*
X8293229Y-10603200D01*
X8293229Y-10603200D02*
X8283705Y-10593676D01*
X8283705Y-10593676D02*
X8274181Y-10574629D01*
X8274181Y-10574629D02*
X8264657Y-10536533D01*
X8264657Y-10536533D02*
X8264657Y-10488914D01*
X8264657Y-10488914D02*
X8274181Y-10450819D01*
X8274181Y-10450819D02*
X8283705Y-10431771D01*
X8283705Y-10431771D02*
X8293229Y-10422248D01*
X8293229Y-10422248D02*
X8312276Y-10412724D01*
X8464657Y-10593676D02*
X8474181Y-10603200D01*
X8474181Y-10603200D02*
X8464657Y-10612724D01*
X8464657Y-10612724D02*
X8455134Y-10603200D01*
X8455134Y-10603200D02*
X8464657Y-10593676D01*
X8464657Y-10593676D02*
X8464657Y-10612724D01*
X8597991Y-10412724D02*
X8617038Y-10412724D01*
X8617038Y-10412724D02*
X8636086Y-10422248D01*
X8636086Y-10422248D02*
X8645610Y-10431771D01*
X8645610Y-10431771D02*
X8655134Y-10450819D01*
X8655134Y-10450819D02*
X8664657Y-10488914D01*
X8664657Y-10488914D02*
X8664657Y-10536533D01*
X8664657Y-10536533D02*
X8655134Y-10574629D01*
X8655134Y-10574629D02*
X8645610Y-10593676D01*
X8645610Y-10593676D02*
X8636086Y-10603200D01*
X8636086Y-10603200D02*
X8617038Y-10612724D01*
X8617038Y-10612724D02*
X8597991Y-10612724D01*
X8597991Y-10612724D02*
X8578943Y-10603200D01*
X8578943Y-10603200D02*
X8569419Y-10593676D01*
X8569419Y-10593676D02*
X8559895Y-10574629D01*
X8559895Y-10574629D02*
X8550372Y-10536533D01*
X8550372Y-10536533D02*
X8550372Y-10488914D01*
X8550372Y-10488914D02*
X8559895Y-10450819D01*
X8559895Y-10450819D02*
X8569419Y-10431771D01*
X8569419Y-10431771D02*
X8578943Y-10422248D01*
X8578943Y-10422248D02*
X8597991Y-10412724D01*
X8731324Y-10412724D02*
X8855134Y-10412724D01*
X8855134Y-10412724D02*
X8788467Y-10488914D01*
X8788467Y-10488914D02*
X8817038Y-10488914D01*
X8817038Y-10488914D02*
X8836086Y-10498438D01*
X8836086Y-10498438D02*
X8845610Y-10507962D01*
X8845610Y-10507962D02*
X8855134Y-10527010D01*
X8855134Y-10527010D02*
X8855134Y-10574629D01*
X8855134Y-10574629D02*
X8845610Y-10593676D01*
X8845610Y-10593676D02*
X8836086Y-10603200D01*
X8836086Y-10603200D02*
X8817038Y-10612724D01*
X8817038Y-10612724D02*
X8759895Y-10612724D01*
X8759895Y-10612724D02*
X8740848Y-10603200D01*
X8740848Y-10603200D02*
X8731324Y-10593676D01*
X9045610Y-10612724D02*
X8931324Y-10612724D01*
X8988467Y-10612724D02*
X8988467Y-10412724D01*
X8988467Y-10412724D02*
X8969419Y-10441295D01*
X8969419Y-10441295D02*
X8950372Y-10460343D01*
X8950372Y-10460343D02*
X8931324Y-10469867D01*
X9226562Y-10412724D02*
X9131324Y-10412724D01*
X9131324Y-10412724D02*
X9121800Y-10507962D01*
X9121800Y-10507962D02*
X9131324Y-10498438D01*
X9131324Y-10498438D02*
X9150372Y-10488914D01*
X9150372Y-10488914D02*
X9197991Y-10488914D01*
X9197991Y-10488914D02*
X9217038Y-10498438D01*
X9217038Y-10498438D02*
X9226562Y-10507962D01*
X9226562Y-10507962D02*
X9236086Y-10527010D01*
X9236086Y-10527010D02*
X9236086Y-10574629D01*
X9236086Y-10574629D02*
X9226562Y-10593676D01*
X9226562Y-10593676D02*
X9217038Y-10603200D01*
X9217038Y-10603200D02*
X9197991Y-10612724D01*
X9197991Y-10612724D02*
X9150372Y-10612724D01*
X9150372Y-10612724D02*
X9131324Y-10603200D01*
X9131324Y-10603200D02*
X9121800Y-10593676D01*
X9312276Y-10412724D02*
X9312276Y-10450819D01*
X9388467Y-10412724D02*
X9388467Y-10450819D01*
X9683705Y-10688914D02*
X9674181Y-10679390D01*
X9674181Y-10679390D02*
X9655134Y-10650819D01*
X9655134Y-10650819D02*
X9645610Y-10631771D01*
X9645610Y-10631771D02*
X9636086Y-10603200D01*
X9636086Y-10603200D02*
X9626562Y-10555581D01*
X9626562Y-10555581D02*
X9626562Y-10517486D01*
X9626562Y-10517486D02*
X9636086Y-10469867D01*
X9636086Y-10469867D02*
X9645610Y-10441295D01*
X9645610Y-10441295D02*
X9655134Y-10422248D01*
X9655134Y-10422248D02*
X9674181Y-10393676D01*
X9674181Y-10393676D02*
X9683705Y-10384152D01*
X9845610Y-10479390D02*
X9845610Y-10612724D01*
X9797991Y-10403200D02*
X9750372Y-10546057D01*
X9750372Y-10546057D02*
X9874181Y-10546057D01*
X10102753Y-10612724D02*
X10102753Y-10412724D01*
X10188467Y-10612724D02*
X10188467Y-10507962D01*
X10188467Y-10507962D02*
X10178943Y-10488914D01*
X10178943Y-10488914D02*
X10159896Y-10479390D01*
X10159896Y-10479390D02*
X10131324Y-10479390D01*
X10131324Y-10479390D02*
X10112277Y-10488914D01*
X10112277Y-10488914D02*
X10102753Y-10498438D01*
X10312277Y-10612724D02*
X10293229Y-10603200D01*
X10293229Y-10603200D02*
X10283705Y-10593676D01*
X10283705Y-10593676D02*
X10274181Y-10574629D01*
X10274181Y-10574629D02*
X10274181Y-10517486D01*
X10274181Y-10517486D02*
X10283705Y-10498438D01*
X10283705Y-10498438D02*
X10293229Y-10488914D01*
X10293229Y-10488914D02*
X10312277Y-10479390D01*
X10312277Y-10479390D02*
X10340848Y-10479390D01*
X10340848Y-10479390D02*
X10359896Y-10488914D01*
X10359896Y-10488914D02*
X10369419Y-10498438D01*
X10369419Y-10498438D02*
X10378943Y-10517486D01*
X10378943Y-10517486D02*
X10378943Y-10574629D01*
X10378943Y-10574629D02*
X10369419Y-10593676D01*
X10369419Y-10593676D02*
X10359896Y-10603200D01*
X10359896Y-10603200D02*
X10340848Y-10612724D01*
X10340848Y-10612724D02*
X10312277Y-10612724D01*
X10493229Y-10612724D02*
X10474181Y-10603200D01*
X10474181Y-10603200D02*
X10464658Y-10584152D01*
X10464658Y-10584152D02*
X10464658Y-10412724D01*
X10645610Y-10603200D02*
X10626562Y-10612724D01*
X10626562Y-10612724D02*
X10588467Y-10612724D01*
X10588467Y-10612724D02*
X10569419Y-10603200D01*
X10569419Y-10603200D02*
X10559896Y-10584152D01*
X10559896Y-10584152D02*
X10559896Y-10507962D01*
X10559896Y-10507962D02*
X10569419Y-10488914D01*
X10569419Y-10488914D02*
X10588467Y-10479390D01*
X10588467Y-10479390D02*
X10626562Y-10479390D01*
X10626562Y-10479390D02*
X10645610Y-10488914D01*
X10645610Y-10488914D02*
X10655134Y-10507962D01*
X10655134Y-10507962D02*
X10655134Y-10527010D01*
X10655134Y-10527010D02*
X10559896Y-10546057D01*
X10731324Y-10603200D02*
X10750372Y-10612724D01*
X10750372Y-10612724D02*
X10788467Y-10612724D01*
X10788467Y-10612724D02*
X10807515Y-10603200D01*
X10807515Y-10603200D02*
X10817039Y-10584152D01*
X10817039Y-10584152D02*
X10817039Y-10574629D01*
X10817039Y-10574629D02*
X10807515Y-10555581D01*
X10807515Y-10555581D02*
X10788467Y-10546057D01*
X10788467Y-10546057D02*
X10759896Y-10546057D01*
X10759896Y-10546057D02*
X10740848Y-10536533D01*
X10740848Y-10536533D02*
X10731324Y-10517486D01*
X10731324Y-10517486D02*
X10731324Y-10507962D01*
X10731324Y-10507962D02*
X10740848Y-10488914D01*
X10740848Y-10488914D02*
X10759896Y-10479390D01*
X10759896Y-10479390D02*
X10788467Y-10479390D01*
X10788467Y-10479390D02*
X10807515Y-10488914D01*
X10883705Y-10688914D02*
X10893229Y-10679390D01*
X10893229Y-10679390D02*
X10912277Y-10650819D01*
X10912277Y-10650819D02*
X10921800Y-10631771D01*
X10921800Y-10631771D02*
X10931324Y-10603200D01*
X10931324Y-10603200D02*
X10940848Y-10555581D01*
X10940848Y-10555581D02*
X10940848Y-10517486D01*
X10940848Y-10517486D02*
X10931324Y-10469867D01*
X10931324Y-10469867D02*
X10921800Y-10441295D01*
X10921800Y-10441295D02*
X10912277Y-10422248D01*
X10912277Y-10422248D02*
X10893229Y-10393676D01*
X10893229Y-10393676D02*
X10883705Y-10384152D01*
D13*
X6121800Y-10784200D02*
G75*
G03*
X6121800Y-10784200I-50000J0D01*
G01*
D11*
X6474181Y-10876724D02*
X6359895Y-10876724D01*
X6417038Y-10876724D02*
X6417038Y-10676724D01*
X6417038Y-10676724D02*
X6397990Y-10705295D01*
X6397990Y-10705295D02*
X6378943Y-10724343D01*
X6378943Y-10724343D02*
X6359895Y-10733867D01*
X6559895Y-10857676D02*
X6569419Y-10867200D01*
X6569419Y-10867200D02*
X6559895Y-10876724D01*
X6559895Y-10876724D02*
X6550371Y-10867200D01*
X6550371Y-10867200D02*
X6559895Y-10857676D01*
X6559895Y-10857676D02*
X6559895Y-10876724D01*
X6693228Y-10676724D02*
X6712276Y-10676724D01*
X6712276Y-10676724D02*
X6731324Y-10686248D01*
X6731324Y-10686248D02*
X6740848Y-10695771D01*
X6740848Y-10695771D02*
X6750371Y-10714819D01*
X6750371Y-10714819D02*
X6759895Y-10752914D01*
X6759895Y-10752914D02*
X6759895Y-10800533D01*
X6759895Y-10800533D02*
X6750371Y-10838629D01*
X6750371Y-10838629D02*
X6740848Y-10857676D01*
X6740848Y-10857676D02*
X6731324Y-10867200D01*
X6731324Y-10867200D02*
X6712276Y-10876724D01*
X6712276Y-10876724D02*
X6693228Y-10876724D01*
X6693228Y-10876724D02*
X6674181Y-10867200D01*
X6674181Y-10867200D02*
X6664657Y-10857676D01*
X6664657Y-10857676D02*
X6655133Y-10838629D01*
X6655133Y-10838629D02*
X6645609Y-10800533D01*
X6645609Y-10800533D02*
X6645609Y-10752914D01*
X6645609Y-10752914D02*
X6655133Y-10714819D01*
X6655133Y-10714819D02*
X6664657Y-10695771D01*
X6664657Y-10695771D02*
X6674181Y-10686248D01*
X6674181Y-10686248D02*
X6693228Y-10676724D01*
X6883705Y-10676724D02*
X6902752Y-10676724D01*
X6902752Y-10676724D02*
X6921800Y-10686248D01*
X6921800Y-10686248D02*
X6931324Y-10695771D01*
X6931324Y-10695771D02*
X6940848Y-10714819D01*
X6940848Y-10714819D02*
X6950371Y-10752914D01*
X6950371Y-10752914D02*
X6950371Y-10800533D01*
X6950371Y-10800533D02*
X6940848Y-10838629D01*
X6940848Y-10838629D02*
X6931324Y-10857676D01*
X6931324Y-10857676D02*
X6921800Y-10867200D01*
X6921800Y-10867200D02*
X6902752Y-10876724D01*
X6902752Y-10876724D02*
X6883705Y-10876724D01*
X6883705Y-10876724D02*
X6864657Y-10867200D01*
X6864657Y-10867200D02*
X6855133Y-10857676D01*
X6855133Y-10857676D02*
X6845609Y-10838629D01*
X6845609Y-10838629D02*
X6836086Y-10800533D01*
X6836086Y-10800533D02*
X6836086Y-10752914D01*
X6836086Y-10752914D02*
X6845609Y-10714819D01*
X6845609Y-10714819D02*
X6855133Y-10695771D01*
X6855133Y-10695771D02*
X6864657Y-10686248D01*
X6864657Y-10686248D02*
X6883705Y-10676724D01*
X7074181Y-10676724D02*
X7093229Y-10676724D01*
X7093229Y-10676724D02*
X7112276Y-10686248D01*
X7112276Y-10686248D02*
X7121800Y-10695771D01*
X7121800Y-10695771D02*
X7131324Y-10714819D01*
X7131324Y-10714819D02*
X7140848Y-10752914D01*
X7140848Y-10752914D02*
X7140848Y-10800533D01*
X7140848Y-10800533D02*
X7131324Y-10838629D01*
X7131324Y-10838629D02*
X7121800Y-10857676D01*
X7121800Y-10857676D02*
X7112276Y-10867200D01*
X7112276Y-10867200D02*
X7093229Y-10876724D01*
X7093229Y-10876724D02*
X7074181Y-10876724D01*
X7074181Y-10876724D02*
X7055133Y-10867200D01*
X7055133Y-10867200D02*
X7045609Y-10857676D01*
X7045609Y-10857676D02*
X7036086Y-10838629D01*
X7036086Y-10838629D02*
X7026562Y-10800533D01*
X7026562Y-10800533D02*
X7026562Y-10752914D01*
X7026562Y-10752914D02*
X7036086Y-10714819D01*
X7036086Y-10714819D02*
X7045609Y-10695771D01*
X7045609Y-10695771D02*
X7055133Y-10686248D01*
X7055133Y-10686248D02*
X7074181Y-10676724D01*
X7226562Y-10876724D02*
X7226562Y-10743390D01*
X7226562Y-10762438D02*
X7236086Y-10752914D01*
X7236086Y-10752914D02*
X7255133Y-10743390D01*
X7255133Y-10743390D02*
X7283705Y-10743390D01*
X7283705Y-10743390D02*
X7302752Y-10752914D01*
X7302752Y-10752914D02*
X7312276Y-10771962D01*
X7312276Y-10771962D02*
X7312276Y-10876724D01*
X7312276Y-10771962D02*
X7321800Y-10752914D01*
X7321800Y-10752914D02*
X7340848Y-10743390D01*
X7340848Y-10743390D02*
X7369419Y-10743390D01*
X7369419Y-10743390D02*
X7388467Y-10752914D01*
X7388467Y-10752914D02*
X7397990Y-10771962D01*
X7397990Y-10771962D02*
X7397990Y-10876724D01*
X7493229Y-10876724D02*
X7493229Y-10743390D01*
X7493229Y-10762438D02*
X7502752Y-10752914D01*
X7502752Y-10752914D02*
X7521800Y-10743390D01*
X7521800Y-10743390D02*
X7550371Y-10743390D01*
X7550371Y-10743390D02*
X7569419Y-10752914D01*
X7569419Y-10752914D02*
X7578943Y-10771962D01*
X7578943Y-10771962D02*
X7578943Y-10876724D01*
X7578943Y-10771962D02*
X7588467Y-10752914D01*
X7588467Y-10752914D02*
X7607514Y-10743390D01*
X7607514Y-10743390D02*
X7636086Y-10743390D01*
X7636086Y-10743390D02*
X7655133Y-10752914D01*
X7655133Y-10752914D02*
X7664657Y-10771962D01*
X7664657Y-10771962D02*
X7664657Y-10876724D01*
X8055133Y-10667200D02*
X7883705Y-10924343D01*
X8312276Y-10676724D02*
X8331324Y-10676724D01*
X8331324Y-10676724D02*
X8350372Y-10686248D01*
X8350372Y-10686248D02*
X8359895Y-10695771D01*
X8359895Y-10695771D02*
X8369419Y-10714819D01*
X8369419Y-10714819D02*
X8378943Y-10752914D01*
X8378943Y-10752914D02*
X8378943Y-10800533D01*
X8378943Y-10800533D02*
X8369419Y-10838629D01*
X8369419Y-10838629D02*
X8359895Y-10857676D01*
X8359895Y-10857676D02*
X8350372Y-10867200D01*
X8350372Y-10867200D02*
X8331324Y-10876724D01*
X8331324Y-10876724D02*
X8312276Y-10876724D01*
X8312276Y-10876724D02*
X8293229Y-10867200D01*
X8293229Y-10867200D02*
X8283705Y-10857676D01*
X8283705Y-10857676D02*
X8274181Y-10838629D01*
X8274181Y-10838629D02*
X8264657Y-10800533D01*
X8264657Y-10800533D02*
X8264657Y-10752914D01*
X8264657Y-10752914D02*
X8274181Y-10714819D01*
X8274181Y-10714819D02*
X8283705Y-10695771D01*
X8283705Y-10695771D02*
X8293229Y-10686248D01*
X8293229Y-10686248D02*
X8312276Y-10676724D01*
X8464657Y-10857676D02*
X8474181Y-10867200D01*
X8474181Y-10867200D02*
X8464657Y-10876724D01*
X8464657Y-10876724D02*
X8455134Y-10867200D01*
X8455134Y-10867200D02*
X8464657Y-10857676D01*
X8464657Y-10857676D02*
X8464657Y-10876724D01*
X8597991Y-10676724D02*
X8617038Y-10676724D01*
X8617038Y-10676724D02*
X8636086Y-10686248D01*
X8636086Y-10686248D02*
X8645610Y-10695771D01*
X8645610Y-10695771D02*
X8655134Y-10714819D01*
X8655134Y-10714819D02*
X8664657Y-10752914D01*
X8664657Y-10752914D02*
X8664657Y-10800533D01*
X8664657Y-10800533D02*
X8655134Y-10838629D01*
X8655134Y-10838629D02*
X8645610Y-10857676D01*
X8645610Y-10857676D02*
X8636086Y-10867200D01*
X8636086Y-10867200D02*
X8617038Y-10876724D01*
X8617038Y-10876724D02*
X8597991Y-10876724D01*
X8597991Y-10876724D02*
X8578943Y-10867200D01*
X8578943Y-10867200D02*
X8569419Y-10857676D01*
X8569419Y-10857676D02*
X8559895Y-10838629D01*
X8559895Y-10838629D02*
X8550372Y-10800533D01*
X8550372Y-10800533D02*
X8550372Y-10752914D01*
X8550372Y-10752914D02*
X8559895Y-10714819D01*
X8559895Y-10714819D02*
X8569419Y-10695771D01*
X8569419Y-10695771D02*
X8578943Y-10686248D01*
X8578943Y-10686248D02*
X8597991Y-10676724D01*
X8731324Y-10676724D02*
X8855134Y-10676724D01*
X8855134Y-10676724D02*
X8788467Y-10752914D01*
X8788467Y-10752914D02*
X8817038Y-10752914D01*
X8817038Y-10752914D02*
X8836086Y-10762438D01*
X8836086Y-10762438D02*
X8845610Y-10771962D01*
X8845610Y-10771962D02*
X8855134Y-10791010D01*
X8855134Y-10791010D02*
X8855134Y-10838629D01*
X8855134Y-10838629D02*
X8845610Y-10857676D01*
X8845610Y-10857676D02*
X8836086Y-10867200D01*
X8836086Y-10867200D02*
X8817038Y-10876724D01*
X8817038Y-10876724D02*
X8759895Y-10876724D01*
X8759895Y-10876724D02*
X8740848Y-10867200D01*
X8740848Y-10867200D02*
X8731324Y-10857676D01*
X8950372Y-10876724D02*
X8988467Y-10876724D01*
X8988467Y-10876724D02*
X9007515Y-10867200D01*
X9007515Y-10867200D02*
X9017038Y-10857676D01*
X9017038Y-10857676D02*
X9036086Y-10829105D01*
X9036086Y-10829105D02*
X9045610Y-10791010D01*
X9045610Y-10791010D02*
X9045610Y-10714819D01*
X9045610Y-10714819D02*
X9036086Y-10695771D01*
X9036086Y-10695771D02*
X9026562Y-10686248D01*
X9026562Y-10686248D02*
X9007515Y-10676724D01*
X9007515Y-10676724D02*
X8969419Y-10676724D01*
X8969419Y-10676724D02*
X8950372Y-10686248D01*
X8950372Y-10686248D02*
X8940848Y-10695771D01*
X8940848Y-10695771D02*
X8931324Y-10714819D01*
X8931324Y-10714819D02*
X8931324Y-10762438D01*
X8931324Y-10762438D02*
X8940848Y-10781486D01*
X8940848Y-10781486D02*
X8950372Y-10791010D01*
X8950372Y-10791010D02*
X8969419Y-10800533D01*
X8969419Y-10800533D02*
X9007515Y-10800533D01*
X9007515Y-10800533D02*
X9026562Y-10791010D01*
X9026562Y-10791010D02*
X9036086Y-10781486D01*
X9036086Y-10781486D02*
X9045610Y-10762438D01*
X9217038Y-10743390D02*
X9217038Y-10876724D01*
X9169419Y-10667200D02*
X9121800Y-10810057D01*
X9121800Y-10810057D02*
X9245610Y-10810057D01*
X9312276Y-10676724D02*
X9312276Y-10714819D01*
X9388467Y-10676724D02*
X9388467Y-10714819D01*
X9683705Y-10952914D02*
X9674181Y-10943390D01*
X9674181Y-10943390D02*
X9655134Y-10914819D01*
X9655134Y-10914819D02*
X9645610Y-10895771D01*
X9645610Y-10895771D02*
X9636086Y-10867200D01*
X9636086Y-10867200D02*
X9626562Y-10819581D01*
X9626562Y-10819581D02*
X9626562Y-10781486D01*
X9626562Y-10781486D02*
X9636086Y-10733867D01*
X9636086Y-10733867D02*
X9645610Y-10705295D01*
X9645610Y-10705295D02*
X9655134Y-10686248D01*
X9655134Y-10686248D02*
X9674181Y-10657676D01*
X9674181Y-10657676D02*
X9683705Y-10648152D01*
X9845610Y-10676724D02*
X9807515Y-10676724D01*
X9807515Y-10676724D02*
X9788467Y-10686248D01*
X9788467Y-10686248D02*
X9778943Y-10695771D01*
X9778943Y-10695771D02*
X9759896Y-10724343D01*
X9759896Y-10724343D02*
X9750372Y-10762438D01*
X9750372Y-10762438D02*
X9750372Y-10838629D01*
X9750372Y-10838629D02*
X9759896Y-10857676D01*
X9759896Y-10857676D02*
X9769419Y-10867200D01*
X9769419Y-10867200D02*
X9788467Y-10876724D01*
X9788467Y-10876724D02*
X9826562Y-10876724D01*
X9826562Y-10876724D02*
X9845610Y-10867200D01*
X9845610Y-10867200D02*
X9855134Y-10857676D01*
X9855134Y-10857676D02*
X9864657Y-10838629D01*
X9864657Y-10838629D02*
X9864657Y-10791010D01*
X9864657Y-10791010D02*
X9855134Y-10771962D01*
X9855134Y-10771962D02*
X9845610Y-10762438D01*
X9845610Y-10762438D02*
X9826562Y-10752914D01*
X9826562Y-10752914D02*
X9788467Y-10752914D01*
X9788467Y-10752914D02*
X9769419Y-10762438D01*
X9769419Y-10762438D02*
X9759896Y-10771962D01*
X9759896Y-10771962D02*
X9750372Y-10791010D01*
X9988467Y-10676724D02*
X10007515Y-10676724D01*
X10007515Y-10676724D02*
X10026562Y-10686248D01*
X10026562Y-10686248D02*
X10036086Y-10695771D01*
X10036086Y-10695771D02*
X10045610Y-10714819D01*
X10045610Y-10714819D02*
X10055134Y-10752914D01*
X10055134Y-10752914D02*
X10055134Y-10800533D01*
X10055134Y-10800533D02*
X10045610Y-10838629D01*
X10045610Y-10838629D02*
X10036086Y-10857676D01*
X10036086Y-10857676D02*
X10026562Y-10867200D01*
X10026562Y-10867200D02*
X10007515Y-10876724D01*
X10007515Y-10876724D02*
X9988467Y-10876724D01*
X9988467Y-10876724D02*
X9969419Y-10867200D01*
X9969419Y-10867200D02*
X9959896Y-10857676D01*
X9959896Y-10857676D02*
X9950372Y-10838629D01*
X9950372Y-10838629D02*
X9940848Y-10800533D01*
X9940848Y-10800533D02*
X9940848Y-10752914D01*
X9940848Y-10752914D02*
X9950372Y-10714819D01*
X9950372Y-10714819D02*
X9959896Y-10695771D01*
X9959896Y-10695771D02*
X9969419Y-10686248D01*
X9969419Y-10686248D02*
X9988467Y-10676724D01*
X10293229Y-10876724D02*
X10293229Y-10676724D01*
X10378943Y-10876724D02*
X10378943Y-10771962D01*
X10378943Y-10771962D02*
X10369419Y-10752914D01*
X10369419Y-10752914D02*
X10350372Y-10743390D01*
X10350372Y-10743390D02*
X10321800Y-10743390D01*
X10321800Y-10743390D02*
X10302753Y-10752914D01*
X10302753Y-10752914D02*
X10293229Y-10762438D01*
X10502753Y-10876724D02*
X10483705Y-10867200D01*
X10483705Y-10867200D02*
X10474181Y-10857676D01*
X10474181Y-10857676D02*
X10464658Y-10838629D01*
X10464658Y-10838629D02*
X10464658Y-10781486D01*
X10464658Y-10781486D02*
X10474181Y-10762438D01*
X10474181Y-10762438D02*
X10483705Y-10752914D01*
X10483705Y-10752914D02*
X10502753Y-10743390D01*
X10502753Y-10743390D02*
X10531324Y-10743390D01*
X10531324Y-10743390D02*
X10550372Y-10752914D01*
X10550372Y-10752914D02*
X10559896Y-10762438D01*
X10559896Y-10762438D02*
X10569419Y-10781486D01*
X10569419Y-10781486D02*
X10569419Y-10838629D01*
X10569419Y-10838629D02*
X10559896Y-10857676D01*
X10559896Y-10857676D02*
X10550372Y-10867200D01*
X10550372Y-10867200D02*
X10531324Y-10876724D01*
X10531324Y-10876724D02*
X10502753Y-10876724D01*
X10683705Y-10876724D02*
X10664658Y-10867200D01*
X10664658Y-10867200D02*
X10655134Y-10848152D01*
X10655134Y-10848152D02*
X10655134Y-10676724D01*
X10836086Y-10867200D02*
X10817039Y-10876724D01*
X10817039Y-10876724D02*
X10778943Y-10876724D01*
X10778943Y-10876724D02*
X10759896Y-10867200D01*
X10759896Y-10867200D02*
X10750372Y-10848152D01*
X10750372Y-10848152D02*
X10750372Y-10771962D01*
X10750372Y-10771962D02*
X10759896Y-10752914D01*
X10759896Y-10752914D02*
X10778943Y-10743390D01*
X10778943Y-10743390D02*
X10817039Y-10743390D01*
X10817039Y-10743390D02*
X10836086Y-10752914D01*
X10836086Y-10752914D02*
X10845610Y-10771962D01*
X10845610Y-10771962D02*
X10845610Y-10791010D01*
X10845610Y-10791010D02*
X10750372Y-10810057D01*
X10921800Y-10867200D02*
X10940848Y-10876724D01*
X10940848Y-10876724D02*
X10978943Y-10876724D01*
X10978943Y-10876724D02*
X10997991Y-10867200D01*
X10997991Y-10867200D02*
X11007515Y-10848152D01*
X11007515Y-10848152D02*
X11007515Y-10838629D01*
X11007515Y-10838629D02*
X10997991Y-10819581D01*
X10997991Y-10819581D02*
X10978943Y-10810057D01*
X10978943Y-10810057D02*
X10950372Y-10810057D01*
X10950372Y-10810057D02*
X10931324Y-10800533D01*
X10931324Y-10800533D02*
X10921800Y-10781486D01*
X10921800Y-10781486D02*
X10921800Y-10771962D01*
X10921800Y-10771962D02*
X10931324Y-10752914D01*
X10931324Y-10752914D02*
X10950372Y-10743390D01*
X10950372Y-10743390D02*
X10978943Y-10743390D01*
X10978943Y-10743390D02*
X10997991Y-10752914D01*
X11074181Y-10952914D02*
X11083705Y-10943390D01*
X11083705Y-10943390D02*
X11102753Y-10914819D01*
X11102753Y-10914819D02*
X11112277Y-10895771D01*
X11112277Y-10895771D02*
X11121800Y-10867200D01*
X11121800Y-10867200D02*
X11131324Y-10819581D01*
X11131324Y-10819581D02*
X11131324Y-10781486D01*
X11131324Y-10781486D02*
X11121800Y-10733867D01*
X11121800Y-10733867D02*
X11112277Y-10705295D01*
X11112277Y-10705295D02*
X11102753Y-10686248D01*
X11102753Y-10686248D02*
X11083705Y-10657676D01*
X11083705Y-10657676D02*
X11074181Y-10648152D01*
D14*
X6070800Y-10997200D02*
X6070800Y-11099200D01*
X6019800Y-11048200D02*
X6121800Y-11048200D01*
D11*
X6474181Y-11140724D02*
X6359895Y-11140724D01*
X6417038Y-11140724D02*
X6417038Y-10940724D01*
X6417038Y-10940724D02*
X6397990Y-10969295D01*
X6397990Y-10969295D02*
X6378943Y-10988343D01*
X6378943Y-10988343D02*
X6359895Y-10997867D01*
X6559895Y-11121676D02*
X6569419Y-11131200D01*
X6569419Y-11131200D02*
X6559895Y-11140724D01*
X6559895Y-11140724D02*
X6550371Y-11131200D01*
X6550371Y-11131200D02*
X6559895Y-11121676D01*
X6559895Y-11121676D02*
X6559895Y-11140724D01*
X6693228Y-10940724D02*
X6712276Y-10940724D01*
X6712276Y-10940724D02*
X6731324Y-10950248D01*
X6731324Y-10950248D02*
X6740848Y-10959771D01*
X6740848Y-10959771D02*
X6750371Y-10978819D01*
X6750371Y-10978819D02*
X6759895Y-11016914D01*
X6759895Y-11016914D02*
X6759895Y-11064533D01*
X6759895Y-11064533D02*
X6750371Y-11102629D01*
X6750371Y-11102629D02*
X6740848Y-11121676D01*
X6740848Y-11121676D02*
X6731324Y-11131200D01*
X6731324Y-11131200D02*
X6712276Y-11140724D01*
X6712276Y-11140724D02*
X6693228Y-11140724D01*
X6693228Y-11140724D02*
X6674181Y-11131200D01*
X6674181Y-11131200D02*
X6664657Y-11121676D01*
X6664657Y-11121676D02*
X6655133Y-11102629D01*
X6655133Y-11102629D02*
X6645609Y-11064533D01*
X6645609Y-11064533D02*
X6645609Y-11016914D01*
X6645609Y-11016914D02*
X6655133Y-10978819D01*
X6655133Y-10978819D02*
X6664657Y-10959771D01*
X6664657Y-10959771D02*
X6674181Y-10950248D01*
X6674181Y-10950248D02*
X6693228Y-10940724D01*
X6836086Y-10959771D02*
X6845609Y-10950248D01*
X6845609Y-10950248D02*
X6864657Y-10940724D01*
X6864657Y-10940724D02*
X6912276Y-10940724D01*
X6912276Y-10940724D02*
X6931324Y-10950248D01*
X6931324Y-10950248D02*
X6940848Y-10959771D01*
X6940848Y-10959771D02*
X6950371Y-10978819D01*
X6950371Y-10978819D02*
X6950371Y-10997867D01*
X6950371Y-10997867D02*
X6940848Y-11026438D01*
X6940848Y-11026438D02*
X6826562Y-11140724D01*
X6826562Y-11140724D02*
X6950371Y-11140724D01*
X7074181Y-10940724D02*
X7093229Y-10940724D01*
X7093229Y-10940724D02*
X7112276Y-10950248D01*
X7112276Y-10950248D02*
X7121800Y-10959771D01*
X7121800Y-10959771D02*
X7131324Y-10978819D01*
X7131324Y-10978819D02*
X7140848Y-11016914D01*
X7140848Y-11016914D02*
X7140848Y-11064533D01*
X7140848Y-11064533D02*
X7131324Y-11102629D01*
X7131324Y-11102629D02*
X7121800Y-11121676D01*
X7121800Y-11121676D02*
X7112276Y-11131200D01*
X7112276Y-11131200D02*
X7093229Y-11140724D01*
X7093229Y-11140724D02*
X7074181Y-11140724D01*
X7074181Y-11140724D02*
X7055133Y-11131200D01*
X7055133Y-11131200D02*
X7045609Y-11121676D01*
X7045609Y-11121676D02*
X7036086Y-11102629D01*
X7036086Y-11102629D02*
X7026562Y-11064533D01*
X7026562Y-11064533D02*
X7026562Y-11016914D01*
X7026562Y-11016914D02*
X7036086Y-10978819D01*
X7036086Y-10978819D02*
X7045609Y-10959771D01*
X7045609Y-10959771D02*
X7055133Y-10950248D01*
X7055133Y-10950248D02*
X7074181Y-10940724D01*
X7226562Y-11140724D02*
X7226562Y-11007390D01*
X7226562Y-11026438D02*
X7236086Y-11016914D01*
X7236086Y-11016914D02*
X7255133Y-11007390D01*
X7255133Y-11007390D02*
X7283705Y-11007390D01*
X7283705Y-11007390D02*
X7302752Y-11016914D01*
X7302752Y-11016914D02*
X7312276Y-11035962D01*
X7312276Y-11035962D02*
X7312276Y-11140724D01*
X7312276Y-11035962D02*
X7321800Y-11016914D01*
X7321800Y-11016914D02*
X7340848Y-11007390D01*
X7340848Y-11007390D02*
X7369419Y-11007390D01*
X7369419Y-11007390D02*
X7388467Y-11016914D01*
X7388467Y-11016914D02*
X7397990Y-11035962D01*
X7397990Y-11035962D02*
X7397990Y-11140724D01*
X7493229Y-11140724D02*
X7493229Y-11007390D01*
X7493229Y-11026438D02*
X7502752Y-11016914D01*
X7502752Y-11016914D02*
X7521800Y-11007390D01*
X7521800Y-11007390D02*
X7550371Y-11007390D01*
X7550371Y-11007390D02*
X7569419Y-11016914D01*
X7569419Y-11016914D02*
X7578943Y-11035962D01*
X7578943Y-11035962D02*
X7578943Y-11140724D01*
X7578943Y-11035962D02*
X7588467Y-11016914D01*
X7588467Y-11016914D02*
X7607514Y-11007390D01*
X7607514Y-11007390D02*
X7636086Y-11007390D01*
X7636086Y-11007390D02*
X7655133Y-11016914D01*
X7655133Y-11016914D02*
X7664657Y-11035962D01*
X7664657Y-11035962D02*
X7664657Y-11140724D01*
X8055133Y-10931200D02*
X7883705Y-11188343D01*
X8312276Y-10940724D02*
X8331324Y-10940724D01*
X8331324Y-10940724D02*
X8350372Y-10950248D01*
X8350372Y-10950248D02*
X8359895Y-10959771D01*
X8359895Y-10959771D02*
X8369419Y-10978819D01*
X8369419Y-10978819D02*
X8378943Y-11016914D01*
X8378943Y-11016914D02*
X8378943Y-11064533D01*
X8378943Y-11064533D02*
X8369419Y-11102629D01*
X8369419Y-11102629D02*
X8359895Y-11121676D01*
X8359895Y-11121676D02*
X8350372Y-11131200D01*
X8350372Y-11131200D02*
X8331324Y-11140724D01*
X8331324Y-11140724D02*
X8312276Y-11140724D01*
X8312276Y-11140724D02*
X8293229Y-11131200D01*
X8293229Y-11131200D02*
X8283705Y-11121676D01*
X8283705Y-11121676D02*
X8274181Y-11102629D01*
X8274181Y-11102629D02*
X8264657Y-11064533D01*
X8264657Y-11064533D02*
X8264657Y-11016914D01*
X8264657Y-11016914D02*
X8274181Y-10978819D01*
X8274181Y-10978819D02*
X8283705Y-10959771D01*
X8283705Y-10959771D02*
X8293229Y-10950248D01*
X8293229Y-10950248D02*
X8312276Y-10940724D01*
X8464657Y-11121676D02*
X8474181Y-11131200D01*
X8474181Y-11131200D02*
X8464657Y-11140724D01*
X8464657Y-11140724D02*
X8455134Y-11131200D01*
X8455134Y-11131200D02*
X8464657Y-11121676D01*
X8464657Y-11121676D02*
X8464657Y-11140724D01*
X8597991Y-10940724D02*
X8617038Y-10940724D01*
X8617038Y-10940724D02*
X8636086Y-10950248D01*
X8636086Y-10950248D02*
X8645610Y-10959771D01*
X8645610Y-10959771D02*
X8655134Y-10978819D01*
X8655134Y-10978819D02*
X8664657Y-11016914D01*
X8664657Y-11016914D02*
X8664657Y-11064533D01*
X8664657Y-11064533D02*
X8655134Y-11102629D01*
X8655134Y-11102629D02*
X8645610Y-11121676D01*
X8645610Y-11121676D02*
X8636086Y-11131200D01*
X8636086Y-11131200D02*
X8617038Y-11140724D01*
X8617038Y-11140724D02*
X8597991Y-11140724D01*
X8597991Y-11140724D02*
X8578943Y-11131200D01*
X8578943Y-11131200D02*
X8569419Y-11121676D01*
X8569419Y-11121676D02*
X8559895Y-11102629D01*
X8559895Y-11102629D02*
X8550372Y-11064533D01*
X8550372Y-11064533D02*
X8550372Y-11016914D01*
X8550372Y-11016914D02*
X8559895Y-10978819D01*
X8559895Y-10978819D02*
X8569419Y-10959771D01*
X8569419Y-10959771D02*
X8578943Y-10950248D01*
X8578943Y-10950248D02*
X8597991Y-10940724D01*
X8836086Y-11007390D02*
X8836086Y-11140724D01*
X8788467Y-10931200D02*
X8740848Y-11074057D01*
X8740848Y-11074057D02*
X8864657Y-11074057D01*
X8978943Y-10940724D02*
X8997991Y-10940724D01*
X8997991Y-10940724D02*
X9017038Y-10950248D01*
X9017038Y-10950248D02*
X9026562Y-10959771D01*
X9026562Y-10959771D02*
X9036086Y-10978819D01*
X9036086Y-10978819D02*
X9045610Y-11016914D01*
X9045610Y-11016914D02*
X9045610Y-11064533D01*
X9045610Y-11064533D02*
X9036086Y-11102629D01*
X9036086Y-11102629D02*
X9026562Y-11121676D01*
X9026562Y-11121676D02*
X9017038Y-11131200D01*
X9017038Y-11131200D02*
X8997991Y-11140724D01*
X8997991Y-11140724D02*
X8978943Y-11140724D01*
X8978943Y-11140724D02*
X8959895Y-11131200D01*
X8959895Y-11131200D02*
X8950372Y-11121676D01*
X8950372Y-11121676D02*
X8940848Y-11102629D01*
X8940848Y-11102629D02*
X8931324Y-11064533D01*
X8931324Y-11064533D02*
X8931324Y-11016914D01*
X8931324Y-11016914D02*
X8940848Y-10978819D01*
X8940848Y-10978819D02*
X8950372Y-10959771D01*
X8950372Y-10959771D02*
X8959895Y-10950248D01*
X8959895Y-10950248D02*
X8978943Y-10940724D01*
X9121800Y-10959771D02*
X9131324Y-10950248D01*
X9131324Y-10950248D02*
X9150372Y-10940724D01*
X9150372Y-10940724D02*
X9197991Y-10940724D01*
X9197991Y-10940724D02*
X9217038Y-10950248D01*
X9217038Y-10950248D02*
X9226562Y-10959771D01*
X9226562Y-10959771D02*
X9236086Y-10978819D01*
X9236086Y-10978819D02*
X9236086Y-10997867D01*
X9236086Y-10997867D02*
X9226562Y-11026438D01*
X9226562Y-11026438D02*
X9112276Y-11140724D01*
X9112276Y-11140724D02*
X9236086Y-11140724D01*
X9312276Y-10940724D02*
X9312276Y-10978819D01*
X9388467Y-10940724D02*
X9388467Y-10978819D01*
X9683705Y-11216914D02*
X9674181Y-11207390D01*
X9674181Y-11207390D02*
X9655134Y-11178819D01*
X9655134Y-11178819D02*
X9645610Y-11159771D01*
X9645610Y-11159771D02*
X9636086Y-11131200D01*
X9636086Y-11131200D02*
X9626562Y-11083581D01*
X9626562Y-11083581D02*
X9626562Y-11045486D01*
X9626562Y-11045486D02*
X9636086Y-10997867D01*
X9636086Y-10997867D02*
X9645610Y-10969295D01*
X9645610Y-10969295D02*
X9655134Y-10950248D01*
X9655134Y-10950248D02*
X9674181Y-10921676D01*
X9674181Y-10921676D02*
X9683705Y-10912152D01*
X9740848Y-10940724D02*
X9864657Y-10940724D01*
X9864657Y-10940724D02*
X9797991Y-11016914D01*
X9797991Y-11016914D02*
X9826562Y-11016914D01*
X9826562Y-11016914D02*
X9845610Y-11026438D01*
X9845610Y-11026438D02*
X9855134Y-11035962D01*
X9855134Y-11035962D02*
X9864657Y-11055010D01*
X9864657Y-11055010D02*
X9864657Y-11102629D01*
X9864657Y-11102629D02*
X9855134Y-11121676D01*
X9855134Y-11121676D02*
X9845610Y-11131200D01*
X9845610Y-11131200D02*
X9826562Y-11140724D01*
X9826562Y-11140724D02*
X9769419Y-11140724D01*
X9769419Y-11140724D02*
X9750372Y-11131200D01*
X9750372Y-11131200D02*
X9740848Y-11121676D01*
X9988467Y-10940724D02*
X10007515Y-10940724D01*
X10007515Y-10940724D02*
X10026562Y-10950248D01*
X10026562Y-10950248D02*
X10036086Y-10959771D01*
X10036086Y-10959771D02*
X10045610Y-10978819D01*
X10045610Y-10978819D02*
X10055134Y-11016914D01*
X10055134Y-11016914D02*
X10055134Y-11064533D01*
X10055134Y-11064533D02*
X10045610Y-11102629D01*
X10045610Y-11102629D02*
X10036086Y-11121676D01*
X10036086Y-11121676D02*
X10026562Y-11131200D01*
X10026562Y-11131200D02*
X10007515Y-11140724D01*
X10007515Y-11140724D02*
X9988467Y-11140724D01*
X9988467Y-11140724D02*
X9969419Y-11131200D01*
X9969419Y-11131200D02*
X9959896Y-11121676D01*
X9959896Y-11121676D02*
X9950372Y-11102629D01*
X9950372Y-11102629D02*
X9940848Y-11064533D01*
X9940848Y-11064533D02*
X9940848Y-11016914D01*
X9940848Y-11016914D02*
X9950372Y-10978819D01*
X9950372Y-10978819D02*
X9959896Y-10959771D01*
X9959896Y-10959771D02*
X9969419Y-10950248D01*
X9969419Y-10950248D02*
X9988467Y-10940724D01*
X10293229Y-11140724D02*
X10293229Y-10940724D01*
X10378943Y-11140724D02*
X10378943Y-11035962D01*
X10378943Y-11035962D02*
X10369419Y-11016914D01*
X10369419Y-11016914D02*
X10350372Y-11007390D01*
X10350372Y-11007390D02*
X10321800Y-11007390D01*
X10321800Y-11007390D02*
X10302753Y-11016914D01*
X10302753Y-11016914D02*
X10293229Y-11026438D01*
X10502753Y-11140724D02*
X10483705Y-11131200D01*
X10483705Y-11131200D02*
X10474181Y-11121676D01*
X10474181Y-11121676D02*
X10464658Y-11102629D01*
X10464658Y-11102629D02*
X10464658Y-11045486D01*
X10464658Y-11045486D02*
X10474181Y-11026438D01*
X10474181Y-11026438D02*
X10483705Y-11016914D01*
X10483705Y-11016914D02*
X10502753Y-11007390D01*
X10502753Y-11007390D02*
X10531324Y-11007390D01*
X10531324Y-11007390D02*
X10550372Y-11016914D01*
X10550372Y-11016914D02*
X10559896Y-11026438D01*
X10559896Y-11026438D02*
X10569419Y-11045486D01*
X10569419Y-11045486D02*
X10569419Y-11102629D01*
X10569419Y-11102629D02*
X10559896Y-11121676D01*
X10559896Y-11121676D02*
X10550372Y-11131200D01*
X10550372Y-11131200D02*
X10531324Y-11140724D01*
X10531324Y-11140724D02*
X10502753Y-11140724D01*
X10683705Y-11140724D02*
X10664658Y-11131200D01*
X10664658Y-11131200D02*
X10655134Y-11112152D01*
X10655134Y-11112152D02*
X10655134Y-10940724D01*
X10836086Y-11131200D02*
X10817039Y-11140724D01*
X10817039Y-11140724D02*
X10778943Y-11140724D01*
X10778943Y-11140724D02*
X10759896Y-11131200D01*
X10759896Y-11131200D02*
X10750372Y-11112152D01*
X10750372Y-11112152D02*
X10750372Y-11035962D01*
X10750372Y-11035962D02*
X10759896Y-11016914D01*
X10759896Y-11016914D02*
X10778943Y-11007390D01*
X10778943Y-11007390D02*
X10817039Y-11007390D01*
X10817039Y-11007390D02*
X10836086Y-11016914D01*
X10836086Y-11016914D02*
X10845610Y-11035962D01*
X10845610Y-11035962D02*
X10845610Y-11055010D01*
X10845610Y-11055010D02*
X10750372Y-11074057D01*
X10921800Y-11131200D02*
X10940848Y-11140724D01*
X10940848Y-11140724D02*
X10978943Y-11140724D01*
X10978943Y-11140724D02*
X10997991Y-11131200D01*
X10997991Y-11131200D02*
X11007515Y-11112152D01*
X11007515Y-11112152D02*
X11007515Y-11102629D01*
X11007515Y-11102629D02*
X10997991Y-11083581D01*
X10997991Y-11083581D02*
X10978943Y-11074057D01*
X10978943Y-11074057D02*
X10950372Y-11074057D01*
X10950372Y-11074057D02*
X10931324Y-11064533D01*
X10931324Y-11064533D02*
X10921800Y-11045486D01*
X10921800Y-11045486D02*
X10921800Y-11035962D01*
X10921800Y-11035962D02*
X10931324Y-11016914D01*
X10931324Y-11016914D02*
X10950372Y-11007390D01*
X10950372Y-11007390D02*
X10978943Y-11007390D01*
X10978943Y-11007390D02*
X10997991Y-11016914D01*
X11074181Y-11216914D02*
X11083705Y-11207390D01*
X11083705Y-11207390D02*
X11102753Y-11178819D01*
X11102753Y-11178819D02*
X11112277Y-11159771D01*
X11112277Y-11159771D02*
X11121800Y-11131200D01*
X11121800Y-11131200D02*
X11131324Y-11083581D01*
X11131324Y-11083581D02*
X11131324Y-11045486D01*
X11131324Y-11045486D02*
X11121800Y-10997867D01*
X11121800Y-10997867D02*
X11112277Y-10969295D01*
X11112277Y-10969295D02*
X11102753Y-10950248D01*
X11102753Y-10950248D02*
X11083705Y-10921676D01*
X11083705Y-10921676D02*
X11074181Y-10912152D01*
D15*
X6102762Y-11358162D02*
X6102762Y-11266238D01*
X6010838Y-11266238D01*
X6010838Y-11358162D01*
X6102762Y-11358162D01*
D11*
X6474181Y-11404724D02*
X6359895Y-11404724D01*
X6417038Y-11404724D02*
X6417038Y-11204724D01*
X6417038Y-11204724D02*
X6397990Y-11233295D01*
X6397990Y-11233295D02*
X6378943Y-11252343D01*
X6378943Y-11252343D02*
X6359895Y-11261867D01*
X6559895Y-11385676D02*
X6569419Y-11395200D01*
X6569419Y-11395200D02*
X6559895Y-11404724D01*
X6559895Y-11404724D02*
X6550371Y-11395200D01*
X6550371Y-11395200D02*
X6559895Y-11385676D01*
X6559895Y-11385676D02*
X6559895Y-11404724D01*
X6636086Y-11204724D02*
X6759895Y-11204724D01*
X6759895Y-11204724D02*
X6693228Y-11280914D01*
X6693228Y-11280914D02*
X6721800Y-11280914D01*
X6721800Y-11280914D02*
X6740848Y-11290438D01*
X6740848Y-11290438D02*
X6750371Y-11299962D01*
X6750371Y-11299962D02*
X6759895Y-11319009D01*
X6759895Y-11319009D02*
X6759895Y-11366628D01*
X6759895Y-11366628D02*
X6750371Y-11385676D01*
X6750371Y-11385676D02*
X6740848Y-11395200D01*
X6740848Y-11395200D02*
X6721800Y-11404724D01*
X6721800Y-11404724D02*
X6664657Y-11404724D01*
X6664657Y-11404724D02*
X6645609Y-11395200D01*
X6645609Y-11395200D02*
X6636086Y-11385676D01*
X6883705Y-11204724D02*
X6902752Y-11204724D01*
X6902752Y-11204724D02*
X6921800Y-11214248D01*
X6921800Y-11214248D02*
X6931324Y-11223771D01*
X6931324Y-11223771D02*
X6940848Y-11242819D01*
X6940848Y-11242819D02*
X6950371Y-11280914D01*
X6950371Y-11280914D02*
X6950371Y-11328533D01*
X6950371Y-11328533D02*
X6940848Y-11366628D01*
X6940848Y-11366628D02*
X6931324Y-11385676D01*
X6931324Y-11385676D02*
X6921800Y-11395200D01*
X6921800Y-11395200D02*
X6902752Y-11404724D01*
X6902752Y-11404724D02*
X6883705Y-11404724D01*
X6883705Y-11404724D02*
X6864657Y-11395200D01*
X6864657Y-11395200D02*
X6855133Y-11385676D01*
X6855133Y-11385676D02*
X6845609Y-11366628D01*
X6845609Y-11366628D02*
X6836086Y-11328533D01*
X6836086Y-11328533D02*
X6836086Y-11280914D01*
X6836086Y-11280914D02*
X6845609Y-11242819D01*
X6845609Y-11242819D02*
X6855133Y-11223771D01*
X6855133Y-11223771D02*
X6864657Y-11214248D01*
X6864657Y-11214248D02*
X6883705Y-11204724D01*
X7074181Y-11204724D02*
X7093229Y-11204724D01*
X7093229Y-11204724D02*
X7112276Y-11214248D01*
X7112276Y-11214248D02*
X7121800Y-11223771D01*
X7121800Y-11223771D02*
X7131324Y-11242819D01*
X7131324Y-11242819D02*
X7140848Y-11280914D01*
X7140848Y-11280914D02*
X7140848Y-11328533D01*
X7140848Y-11328533D02*
X7131324Y-11366628D01*
X7131324Y-11366628D02*
X7121800Y-11385676D01*
X7121800Y-11385676D02*
X7112276Y-11395200D01*
X7112276Y-11395200D02*
X7093229Y-11404724D01*
X7093229Y-11404724D02*
X7074181Y-11404724D01*
X7074181Y-11404724D02*
X7055133Y-11395200D01*
X7055133Y-11395200D02*
X7045609Y-11385676D01*
X7045609Y-11385676D02*
X7036086Y-11366628D01*
X7036086Y-11366628D02*
X7026562Y-11328533D01*
X7026562Y-11328533D02*
X7026562Y-11280914D01*
X7026562Y-11280914D02*
X7036086Y-11242819D01*
X7036086Y-11242819D02*
X7045609Y-11223771D01*
X7045609Y-11223771D02*
X7055133Y-11214248D01*
X7055133Y-11214248D02*
X7074181Y-11204724D01*
X7226562Y-11404724D02*
X7226562Y-11271390D01*
X7226562Y-11290438D02*
X7236086Y-11280914D01*
X7236086Y-11280914D02*
X7255133Y-11271390D01*
X7255133Y-11271390D02*
X7283705Y-11271390D01*
X7283705Y-11271390D02*
X7302752Y-11280914D01*
X7302752Y-11280914D02*
X7312276Y-11299962D01*
X7312276Y-11299962D02*
X7312276Y-11404724D01*
X7312276Y-11299962D02*
X7321800Y-11280914D01*
X7321800Y-11280914D02*
X7340848Y-11271390D01*
X7340848Y-11271390D02*
X7369419Y-11271390D01*
X7369419Y-11271390D02*
X7388467Y-11280914D01*
X7388467Y-11280914D02*
X7397990Y-11299962D01*
X7397990Y-11299962D02*
X7397990Y-11404724D01*
X7493229Y-11404724D02*
X7493229Y-11271390D01*
X7493229Y-11290438D02*
X7502752Y-11280914D01*
X7502752Y-11280914D02*
X7521800Y-11271390D01*
X7521800Y-11271390D02*
X7550371Y-11271390D01*
X7550371Y-11271390D02*
X7569419Y-11280914D01*
X7569419Y-11280914D02*
X7578943Y-11299962D01*
X7578943Y-11299962D02*
X7578943Y-11404724D01*
X7578943Y-11299962D02*
X7588467Y-11280914D01*
X7588467Y-11280914D02*
X7607514Y-11271390D01*
X7607514Y-11271390D02*
X7636086Y-11271390D01*
X7636086Y-11271390D02*
X7655133Y-11280914D01*
X7655133Y-11280914D02*
X7664657Y-11299962D01*
X7664657Y-11299962D02*
X7664657Y-11404724D01*
X8055133Y-11195200D02*
X7883705Y-11452343D01*
X8312276Y-11204724D02*
X8331324Y-11204724D01*
X8331324Y-11204724D02*
X8350372Y-11214248D01*
X8350372Y-11214248D02*
X8359895Y-11223771D01*
X8359895Y-11223771D02*
X8369419Y-11242819D01*
X8369419Y-11242819D02*
X8378943Y-11280914D01*
X8378943Y-11280914D02*
X8378943Y-11328533D01*
X8378943Y-11328533D02*
X8369419Y-11366628D01*
X8369419Y-11366628D02*
X8359895Y-11385676D01*
X8359895Y-11385676D02*
X8350372Y-11395200D01*
X8350372Y-11395200D02*
X8331324Y-11404724D01*
X8331324Y-11404724D02*
X8312276Y-11404724D01*
X8312276Y-11404724D02*
X8293229Y-11395200D01*
X8293229Y-11395200D02*
X8283705Y-11385676D01*
X8283705Y-11385676D02*
X8274181Y-11366628D01*
X8274181Y-11366628D02*
X8264657Y-11328533D01*
X8264657Y-11328533D02*
X8264657Y-11280914D01*
X8264657Y-11280914D02*
X8274181Y-11242819D01*
X8274181Y-11242819D02*
X8283705Y-11223771D01*
X8283705Y-11223771D02*
X8293229Y-11214248D01*
X8293229Y-11214248D02*
X8312276Y-11204724D01*
X8464657Y-11385676D02*
X8474181Y-11395200D01*
X8474181Y-11395200D02*
X8464657Y-11404724D01*
X8464657Y-11404724D02*
X8455134Y-11395200D01*
X8455134Y-11395200D02*
X8464657Y-11385676D01*
X8464657Y-11385676D02*
X8464657Y-11404724D01*
X8597991Y-11204724D02*
X8617038Y-11204724D01*
X8617038Y-11204724D02*
X8636086Y-11214248D01*
X8636086Y-11214248D02*
X8645610Y-11223771D01*
X8645610Y-11223771D02*
X8655134Y-11242819D01*
X8655134Y-11242819D02*
X8664657Y-11280914D01*
X8664657Y-11280914D02*
X8664657Y-11328533D01*
X8664657Y-11328533D02*
X8655134Y-11366628D01*
X8655134Y-11366628D02*
X8645610Y-11385676D01*
X8645610Y-11385676D02*
X8636086Y-11395200D01*
X8636086Y-11395200D02*
X8617038Y-11404724D01*
X8617038Y-11404724D02*
X8597991Y-11404724D01*
X8597991Y-11404724D02*
X8578943Y-11395200D01*
X8578943Y-11395200D02*
X8569419Y-11385676D01*
X8569419Y-11385676D02*
X8559895Y-11366628D01*
X8559895Y-11366628D02*
X8550372Y-11328533D01*
X8550372Y-11328533D02*
X8550372Y-11280914D01*
X8550372Y-11280914D02*
X8559895Y-11242819D01*
X8559895Y-11242819D02*
X8569419Y-11223771D01*
X8569419Y-11223771D02*
X8578943Y-11214248D01*
X8578943Y-11214248D02*
X8597991Y-11204724D01*
X8845610Y-11204724D02*
X8750372Y-11204724D01*
X8750372Y-11204724D02*
X8740848Y-11299962D01*
X8740848Y-11299962D02*
X8750372Y-11290438D01*
X8750372Y-11290438D02*
X8769419Y-11280914D01*
X8769419Y-11280914D02*
X8817038Y-11280914D01*
X8817038Y-11280914D02*
X8836086Y-11290438D01*
X8836086Y-11290438D02*
X8845610Y-11299962D01*
X8845610Y-11299962D02*
X8855134Y-11319009D01*
X8855134Y-11319009D02*
X8855134Y-11366628D01*
X8855134Y-11366628D02*
X8845610Y-11385676D01*
X8845610Y-11385676D02*
X8836086Y-11395200D01*
X8836086Y-11395200D02*
X8817038Y-11404724D01*
X8817038Y-11404724D02*
X8769419Y-11404724D01*
X8769419Y-11404724D02*
X8750372Y-11395200D01*
X8750372Y-11395200D02*
X8740848Y-11385676D01*
X9045610Y-11404724D02*
X8931324Y-11404724D01*
X8988467Y-11404724D02*
X8988467Y-11204724D01*
X8988467Y-11204724D02*
X8969419Y-11233295D01*
X8969419Y-11233295D02*
X8950372Y-11252343D01*
X8950372Y-11252343D02*
X8931324Y-11261867D01*
X9121800Y-11223771D02*
X9131324Y-11214248D01*
X9131324Y-11214248D02*
X9150372Y-11204724D01*
X9150372Y-11204724D02*
X9197991Y-11204724D01*
X9197991Y-11204724D02*
X9217038Y-11214248D01*
X9217038Y-11214248D02*
X9226562Y-11223771D01*
X9226562Y-11223771D02*
X9236086Y-11242819D01*
X9236086Y-11242819D02*
X9236086Y-11261867D01*
X9236086Y-11261867D02*
X9226562Y-11290438D01*
X9226562Y-11290438D02*
X9112276Y-11404724D01*
X9112276Y-11404724D02*
X9236086Y-11404724D01*
X9312276Y-11204724D02*
X9312276Y-11242819D01*
X9388467Y-11204724D02*
X9388467Y-11242819D01*
X9683705Y-11480914D02*
X9674181Y-11471390D01*
X9674181Y-11471390D02*
X9655134Y-11442819D01*
X9655134Y-11442819D02*
X9645610Y-11423771D01*
X9645610Y-11423771D02*
X9636086Y-11395200D01*
X9636086Y-11395200D02*
X9626562Y-11347581D01*
X9626562Y-11347581D02*
X9626562Y-11309486D01*
X9626562Y-11309486D02*
X9636086Y-11261867D01*
X9636086Y-11261867D02*
X9645610Y-11233295D01*
X9645610Y-11233295D02*
X9655134Y-11214248D01*
X9655134Y-11214248D02*
X9674181Y-11185676D01*
X9674181Y-11185676D02*
X9683705Y-11176152D01*
X9750372Y-11223771D02*
X9759896Y-11214248D01*
X9759896Y-11214248D02*
X9778943Y-11204724D01*
X9778943Y-11204724D02*
X9826562Y-11204724D01*
X9826562Y-11204724D02*
X9845610Y-11214248D01*
X9845610Y-11214248D02*
X9855134Y-11223771D01*
X9855134Y-11223771D02*
X9864657Y-11242819D01*
X9864657Y-11242819D02*
X9864657Y-11261867D01*
X9864657Y-11261867D02*
X9855134Y-11290438D01*
X9855134Y-11290438D02*
X9740848Y-11404724D01*
X9740848Y-11404724D02*
X9864657Y-11404724D01*
X10102753Y-11404724D02*
X10102753Y-11204724D01*
X10188467Y-11404724D02*
X10188467Y-11299962D01*
X10188467Y-11299962D02*
X10178943Y-11280914D01*
X10178943Y-11280914D02*
X10159896Y-11271390D01*
X10159896Y-11271390D02*
X10131324Y-11271390D01*
X10131324Y-11271390D02*
X10112277Y-11280914D01*
X10112277Y-11280914D02*
X10102753Y-11290438D01*
X10312277Y-11404724D02*
X10293229Y-11395200D01*
X10293229Y-11395200D02*
X10283705Y-11385676D01*
X10283705Y-11385676D02*
X10274181Y-11366628D01*
X10274181Y-11366628D02*
X10274181Y-11309486D01*
X10274181Y-11309486D02*
X10283705Y-11290438D01*
X10283705Y-11290438D02*
X10293229Y-11280914D01*
X10293229Y-11280914D02*
X10312277Y-11271390D01*
X10312277Y-11271390D02*
X10340848Y-11271390D01*
X10340848Y-11271390D02*
X10359896Y-11280914D01*
X10359896Y-11280914D02*
X10369419Y-11290438D01*
X10369419Y-11290438D02*
X10378943Y-11309486D01*
X10378943Y-11309486D02*
X10378943Y-11366628D01*
X10378943Y-11366628D02*
X10369419Y-11385676D01*
X10369419Y-11385676D02*
X10359896Y-11395200D01*
X10359896Y-11395200D02*
X10340848Y-11404724D01*
X10340848Y-11404724D02*
X10312277Y-11404724D01*
X10493229Y-11404724D02*
X10474181Y-11395200D01*
X10474181Y-11395200D02*
X10464658Y-11376152D01*
X10464658Y-11376152D02*
X10464658Y-11204724D01*
X10645610Y-11395200D02*
X10626562Y-11404724D01*
X10626562Y-11404724D02*
X10588467Y-11404724D01*
X10588467Y-11404724D02*
X10569419Y-11395200D01*
X10569419Y-11395200D02*
X10559896Y-11376152D01*
X10559896Y-11376152D02*
X10559896Y-11299962D01*
X10559896Y-11299962D02*
X10569419Y-11280914D01*
X10569419Y-11280914D02*
X10588467Y-11271390D01*
X10588467Y-11271390D02*
X10626562Y-11271390D01*
X10626562Y-11271390D02*
X10645610Y-11280914D01*
X10645610Y-11280914D02*
X10655134Y-11299962D01*
X10655134Y-11299962D02*
X10655134Y-11319009D01*
X10655134Y-11319009D02*
X10559896Y-11338057D01*
X10731324Y-11395200D02*
X10750372Y-11404724D01*
X10750372Y-11404724D02*
X10788467Y-11404724D01*
X10788467Y-11404724D02*
X10807515Y-11395200D01*
X10807515Y-11395200D02*
X10817039Y-11376152D01*
X10817039Y-11376152D02*
X10817039Y-11366628D01*
X10817039Y-11366628D02*
X10807515Y-11347581D01*
X10807515Y-11347581D02*
X10788467Y-11338057D01*
X10788467Y-11338057D02*
X10759896Y-11338057D01*
X10759896Y-11338057D02*
X10740848Y-11328533D01*
X10740848Y-11328533D02*
X10731324Y-11309486D01*
X10731324Y-11309486D02*
X10731324Y-11299962D01*
X10731324Y-11299962D02*
X10740848Y-11280914D01*
X10740848Y-11280914D02*
X10759896Y-11271390D01*
X10759896Y-11271390D02*
X10788467Y-11271390D01*
X10788467Y-11271390D02*
X10807515Y-11280914D01*
X10883705Y-11480914D02*
X10893229Y-11471390D01*
X10893229Y-11471390D02*
X10912277Y-11442819D01*
X10912277Y-11442819D02*
X10921800Y-11423771D01*
X10921800Y-11423771D02*
X10931324Y-11395200D01*
X10931324Y-11395200D02*
X10940848Y-11347581D01*
X10940848Y-11347581D02*
X10940848Y-11309486D01*
X10940848Y-11309486D02*
X10931324Y-11261867D01*
X10931324Y-11261867D02*
X10921800Y-11233295D01*
X10921800Y-11233295D02*
X10912277Y-11214248D01*
X10912277Y-11214248D02*
X10893229Y-11185676D01*
X10893229Y-11185676D02*
X10883705Y-11176152D01*
M02*
